<svg width="38" height="26" viewBox="0 0 38 26" fill="none" xmlns="http://www.w3.org/2000/svg">
<path d="M10.4643 3.172C12.838 1.13486 15.8656 0.00978194 19 0C25.3888 0 30.6921 4.72727 31.2693 10.8231C35.0503 11.3549 38 14.5056 38 18.3725C38 22.6176 34.4422 26 30.1316 26H8.97987C4.0565 26 0 22.1378 0 17.2971C0 13.13 3.00675 9.67909 6.98725 8.80454C7.32687 6.76473 8.645 4.732 10.4643 3.172ZM12.0151 4.96127C10.2172 6.50473 9.27675 8.36491 9.27675 9.82091V10.8798L8.21988 10.9956C4.902 11.3573 2.375 14.0684 2.375 17.2971C2.375 20.7645 5.29625 23.6364 8.97987 23.6364H30.1316C33.2025 23.6364 35.625 21.2444 35.625 18.3725C35.625 15.4984 33.2025 13.1064 30.1316 13.1064H28.9441V11.9245C28.9465 6.67727 24.529 2.36364 19 2.36364C16.4347 2.37383 13.9575 3.29593 12.0151 4.96364V4.96127Z" fill="black"/>
</svg>
