<svg width="16" height="22" viewBox="0 0 16 22" fill="none" xmlns="http://www.w3.org/2000/svg">
<path d="M15.1667 7.58333C15.1667 6.58748 14.9705 5.60137 14.5894 4.68132C14.2083 3.76127 13.6497 2.92528 12.9456 2.22111C12.2414 1.51693 11.4054 0.958345 10.4853 0.577247C9.5653 0.196149 8.57919 0 7.58333 0C6.58748 0 5.60137 0.196149 4.68132 0.577247C3.76126 0.958345 2.92528 1.51693 2.22111 2.22111C1.51693 2.92528 0.958345 3.76127 0.577247 4.68132C0.196149 5.60137 -1.48394e-08 6.58748 0 7.58333C0 9.08592 0.444167 10.4834 1.19708 11.6621H1.18842C3.74508 15.665 7.58333 21.6667 7.58333 21.6667L13.9783 11.6621H13.9707C14.7511 10.4448 15.1662 9.0293 15.1667 7.58333ZM7.58333 10.8333C6.72138 10.8333 5.89473 10.4909 5.28524 9.88143C4.67574 9.27194 4.33333 8.44529 4.33333 7.58333C4.33333 6.72138 4.67574 5.89473 5.28524 5.28524C5.89473 4.67574 6.72138 4.33333 7.58333 4.33333C8.44529 4.33333 9.27194 4.67574 9.88143 5.28524C10.4909 5.89473 10.8333 6.72138 10.8333 7.58333C10.8333 8.44529 10.4909 9.27194 9.88143 9.88143C9.27194 10.4909 8.44529 10.8333 7.58333 10.8333Z" fill="black"/>
</svg>
