<svg width="25" height="21" viewBox="0 0 25 21" fill="none" xmlns="http://www.w3.org/2000/svg">
<path d="M23.914 -0.461853C23.5091 -0.805293 22.8729 -0.854433 22.2152 -0.590373H22.2141C21.5224 -0.312813 2.63319 7.78934 1.86423 8.12037C1.72437 8.16897 0.502886 8.62473 0.628706 9.63993C0.741026 10.5552 1.72275 10.9343 1.84263 10.978L6.64485 12.6223C6.96345 13.6829 8.13795 17.5957 8.39769 18.4317C8.55969 18.9528 8.82375 19.6375 9.28653 19.7784C9.69261 19.935 10.0965 19.7919 10.3579 19.5867L13.2939 16.8635L18.0334 20.5598L18.1463 20.6273C18.4681 20.7699 18.7765 20.8411 19.0708 20.8411C19.2981 20.8411 19.5163 20.7985 19.7247 20.7132C20.4348 20.4216 20.7189 19.7449 20.7486 19.6683L24.2888 1.26669C24.5048 0.283887 24.2046 -0.216153 23.914 -0.461853ZM10.8801 13.2801L9.26007 17.6001L7.64007 12.2001L20.0601 3.02007L10.8801 13.2801Z" fill="black"/>
</svg>
