<svg width="24" height="22" viewBox="0 0 24 22" fill="none" xmlns="http://www.w3.org/2000/svg">
<path d="M20.2564 1.74901C18.0561 -0.452492 15.1301 -1.66583 12.0127 -1.66699C5.58908 -1.66699 0.361252 3.55851 0.358919 9.98217C0.357752 12.0355 0.894419 14.0398 1.91409 15.8062L0.333252 21.6663L6.43842 20.2232C8.14058 21.1518 10.0562 21.6407 12.0069 21.6418H12.0116C18.4341 21.6418 23.6619 16.4152 23.6654 9.99268C23.6677 6.87884 22.4567 3.95167 20.2564 1.74901ZM17.7143 14.146C17.4716 14.8262 16.2828 15.4818 15.7484 15.5297C15.2141 15.5787 14.7136 15.7712 12.2543 14.8017C9.29442 13.635 7.42542 10.6005 7.28075 10.4068C7.13492 10.212 6.09192 8.82834 6.09192 7.39567C6.09192 5.96301 6.84442 5.25834 7.11158 4.96784C7.37875 4.67617 7.69375 4.60384 7.88858 4.60384C8.08225 4.60384 8.27708 4.60384 8.44625 4.61084C8.65392 4.61901 8.88375 4.62951 9.10192 5.11367C9.36092 5.69001 9.92675 7.12967 9.99908 7.27551C10.0714 7.42134 10.1204 7.59168 10.0236 7.78534C9.92675 7.97901 9.87775 8.10034 9.73308 8.27067C9.58725 8.44101 9.42742 8.64984 9.29675 8.78051C9.15092 8.92517 8.99925 9.08384 9.16842 9.37434C9.33875 9.66601 9.92208 10.6192 10.7878 11.3903C11.9008 12.382 12.8376 12.6888 13.1293 12.8358C13.4209 12.9817 13.5901 12.9572 13.7604 12.7623C13.9307 12.5687 14.4884 11.913 14.6821 11.6213C14.8757 11.3297 15.0706 11.3787 15.3378 11.4755C15.6049 11.5723 17.0364 12.277 17.3269 12.4228C17.6186 12.5687 17.8123 12.641 17.8846 12.7623C17.9569 12.8825 17.9569 13.4658 17.7143 14.146Z" fill="black"/>
</svg>
